<svg width="196" height="320" viewBox="0 0 196 320" fill="none" xmlns="http://www.w3.org/2000/svg">
<path opacity="0.2" d="M64.5078 67.9811L59.262 61.0486L55.0678 45.5125C55.0678 45.5125 50.3911 29.8774 48.1394 24.9381C47.793 24.1829 47.4218 23.4773 47.0259 22.7964C47.8795 23.0192 48.7085 23.1926 49.5127 23.304C52.0119 23.6753 54.3379 27.3644 58.4949 28.9985C63.3572 30.9173 66.3637 30.1374 68.702 31.2268C70.9166 32.2666 71.5971 34.5692 74.0592 38.6791C77.2017 43.928 80.5051 45.0297 82.1753 47.5304C82.8311 48.5207 83.2889 52.1602 83.2889 52.1602C83.2146 53.3982 83.4497 54.9332 83.5982 55.7874C83.8951 57.4091 84.9096 62.2742 84.9096 62.2742L69.333 71.1131L64.5078 67.9687V67.9811ZM195.728 320L150.482 193.953L142.416 195.241L142.49 193.953L139.088 194.312C134.089 179.457 130.081 167.932 128.287 163.488C125.886 157.595 125.924 144.411 126.604 138.085C127.866 126.474 132.048 103.423 134.992 92.1208C136.663 85.7207 140.919 73.1804 142.96 66.8917C145.274 59.7983 143.975 57.2234 142.329 54.5495C139.298 49.6349 127.631 45.4135 122.608 42.5786C120.529 41.4026 114.949 38.0107 111.634 35.9804C111.634 35.9804 93.0258 17.4857 87.2975 12.2616C85.9613 11.036 83.0167 8.75823 81.2845 8.22592C78.6245 7.40888 72.8962 8.16401 70.1619 7.6317C68.5783 7.32221 65.4729 6.03478 63.9387 5.84908C61.6622 5.57674 56.404 6.90133 54.1151 6.98798C47.8177 7.23557 29.6676 5.84908 29.6676 5.84908C29.6676 5.84908 24.3228 6.57946 26.1168 12.2616C26.2158 12.5834 26.7107 13.0662 27.1684 13.45C27.0571 13.5614 26.9457 13.6728 26.8591 13.7719C25.3373 15.5297 24.0754 20.073 23.8032 22.5365C23.4196 25.9655 25.028 32.8361 24.8548 36.2775C24.7435 38.5058 23.63 43.0986 24.3352 45.2031C27.3788 54.339 32.7607 68.0306 35.2475 75.7429C36.8435 80.7194 38.3282 89.4716 40.8026 95.8965C41.0872 96.6269 43.3266 96.9983 43.3142 97.7906C43.24 110.38 47.5579 122.983 51.2819 130.534C53.8677 135.795 61.7859 143.817 63.8645 149.004C66.4503 155.429 71.6095 176.053 77.3626 200.762L74.8386 201.022L76.9171 205.64L66.9575 207.224L89.5121 319.988H195.703L195.728 320Z" fill="#92A4B9"/>
<path d="M20.5988 33.7273L10.5278 41.2787C10.5278 41.2787 9.55036 51.4917 21.5019 53.0391C33.3916 54.5741 56.0328 38.9885 67.8607 40.8702C71.028 41.3777 74.5541 49.511 77.7213 49.0529C80.8144 48.6073 82.9672 37.7134 82.9672 37.7134L46.7289 14.6012L20.5864 33.7149L20.5988 33.7273Z" fill="#F7B081"/>
<path d="M20.042 54.3019L14.0291 59.8973C14.0291 59.8973 14.9694 70.8159 26.4756 68.8476C37.2642 67.0154 65.7698 49.5358 65.7698 49.5358H72.3394L81.2845 54.5742L76.3851 39.459L52.3335 33.8635L20.0297 54.2895L20.042 54.3019Z" fill="#FFCAA2"/>
<path d="M23.2588 67.7335C23.2588 67.7335 21.6133 70.0237 21.7371 71.2616C21.9845 73.7251 24.6569 77.8103 28.8511 79.4939C37.19 82.8363 64.6563 76.2753 64.6563 76.2753L85.4912 61.4448L77.1028 50.2539L64.9409 47.1714L23.2588 67.7459V67.7335Z" fill="#F7B081"/>
<path d="M8.83279 14.6136L133.545 122.339L140.238 114.045L15.2911 7.80493L8.83279 14.6136Z" fill="#5273BF"/>
<path d="M8.83278 14.6137L0.0856018 0.47644L15.2911 7.80502L8.83278 14.6137Z" fill="#FFB781"/>
<path d="M-1.75784 -0.43957L1.22385 3.58372L3.97049 1.02119L-1.79495 -0.588135" fill="#010202"/>
<path d="M138.147 119.108C137.318 120.259 136.069 120.791 135.364 120.284C134.658 119.776 134.77 118.427 135.599 117.276C136.428 116.124 137.677 115.592 138.382 116.1C139.088 116.607 138.976 117.957 138.147 119.108Z" fill="#010202"/>
<path d="M20.3637 12.373C20.3637 12.373 18.6811 11.1598 18.4831 10.5284C16.6891 4.84632 22.0339 4.11593 22.0339 4.11593C22.0339 4.11593 40.184 5.50242 46.4814 5.25483C48.7703 5.16817 54.0285 3.84358 56.305 4.11593C57.8515 4.30162 60.9446 5.58908 62.5282 5.89856C65.2625 6.43087 70.9908 5.67573 73.6509 6.49276C75.383 7.02508 78.3275 9.30289 79.6637 10.5284C85.3921 15.7525 104 34.2473 104 34.2473L75.6428 50.4395C75.6428 50.4395 75.1974 46.8 74.5293 45.8096C72.859 43.309 69.5556 42.2072 66.4131 36.9584C63.951 32.8484 63.2706 30.5459 61.0559 29.506C58.7176 28.4166 55.7111 29.1965 50.8489 27.2777C46.6918 25.6313 44.3658 21.9422 41.8666 21.5832C33.2679 20.3205 20.3513 12.373 20.3513 12.373H20.3637Z" fill="#FFB781"/>
<path d="M19.2378 12.0387C19.2378 12.0387 25.1641 3.38557 37.9941 15.6535C43.4008 20.8281 46.1722 32.4523 46.1722 32.4523C46.1722 32.4523 50.8613 53.4105 54.2513 59.6373C55.5008 61.9399 59.5342 65.8146 62.0086 66.6688C66.9823 68.3772 82.9672 65.0719 82.9672 65.0719L79.3174 66.6688L56.9731 73.3908C56.9731 73.3908 48.4734 63.6359 48.3744 63.314C48.2754 63.0045 42.077 39.4838 42.077 39.1743C42.077 38.8648 19.2255 12.0511 19.2255 12.0511L19.2378 12.0387Z" fill="#F6A570"/>
<path d="M27.4283 11.0112C22.4917 9.36475 20.2152 10.8998 19.2255 12.0387C17.7037 13.7966 16.4417 18.3398 16.1695 20.8033C15.786 24.2323 17.3944 31.1029 17.2212 34.5443C17.1098 36.7726 15.9963 41.3654 16.7015 43.4699C19.7451 52.6058 25.127 66.2974 27.6138 74.0097C29.2098 78.9862 39.9366 121.237 43.6606 128.801C46.2464 134.062 54.1646 142.084 56.2432 147.271C64.05 166.644 91.1947 305.454 91.1947 305.454L169.833 309.601C169.833 309.601 127.99 179.804 120.641 161.755C118.24 155.862 118.278 142.678 118.958 136.352C120.22 124.74 124.402 101.69 127.346 90.3876C129.017 83.9875 133.273 71.4472 135.314 65.1585C137.628 58.0651 136.329 55.4902 134.683 52.8163C131.652 47.914 119.985 43.6803 114.962 40.8454C111.918 39.1247 101.389 32.6627 101.389 32.6627C101.389 32.6627 79.6885 42.331 75.9398 49.0406C75.3211 50.1423 75.7171 52.841 75.9398 54.079C76.2367 55.7007 77.2512 60.5658 77.2512 60.5658C77.2512 60.5658 66.475 69.0704 62.0086 68.7114C57.2577 68.3276 53.0635 61.1476 52.1108 59.1917C50.3416 55.5769 48.461 47.6788 47.397 43.8041C45.9618 38.5676 42.7203 28.169 40.4686 23.2296C37.2765 16.1981 31.573 12.4224 27.3911 11.0359L27.4283 11.0112Z" fill="#FFB781"/>
<path d="M67.2173 199.301L134.856 192.22L134.497 198.992L72.327 210.591L67.2173 199.301Z" fill="#F6A570"/>
<path d="M59.3486 205.491L86.0849 320H190.63L142.849 192.22L59.3486 205.491Z" fill="#B1C909"/>
<path d="M59.3486 205.491L64.347 226.709L149.864 211.037L142.849 192.22L59.3486 205.491Z" fill="white"/>
</svg>

